<?xml version="1.0" encoding="UTF-8" standalone="no"?>
<svg width="78px" height="80px" viewBox="0 0 78 80" version="1.1" xmlns="http://www.w3.org/2000/svg" xmlns:xlink="http://www.w3.org/1999/xlink" xmlns:sketch="http://www.bohemiancoding.com/sketch/ns">
    <!-- Generator: Sketch 3.3.2 (12043) - http://www.bohemiancoding.com/sketch -->
    <title>s</title>
    <desc>Created with Sketch.</desc>
    <defs></defs>
    <g id="Page-1" stroke="none" stroke-width="1" fill="none" fill-rule="evenodd" sketch:type="MSPage">
        <path d="M38.336,77.728 C62.384,77.728 75.2,67.36 75.2,53.824 C75.2,41.872 68.864,35.392 47.264,30.496 C36.032,27.904 32.288,27.616 32.288,24.448 C32.288,21.856 35.168,20.416 39.776,20.416 C47.264,20.416 55.616,22.72 63.104,27.04 L74.048,12.352 C66.416,7.6 55.616,2.272 42.08,2.272 C21.2,2.272 7.808,11.488 7.808,25.6 C7.808,36.832 15.008,44.32 34.88,48.64 C46.976,51.232 50.72,51.808 50.72,55.264 C50.72,57.856 48.128,59.584 41.792,59.584 C32.576,59.584 22.64,56.848 13.568,51.52 L3.2,66.784 C12.416,72.832 25.952,77.728 38.336,77.728 L38.336,77.728 Z" id="s" stroke="#F88962" stroke-width="4" sketch:type="MSShapeGroup"></path>
    </g>
</svg>