<?xml version="1.0" encoding="UTF-8" standalone="no"?>
<svg width="76px" height="107px" viewBox="0 0 76 107" version="1.1" xmlns="http://www.w3.org/2000/svg" xmlns:xlink="http://www.w3.org/1999/xlink" xmlns:sketch="http://www.bohemiancoding.com/sketch/ns">
    <!-- Generator: Sketch 3.3.2 (12043) - http://www.bohemiancoding.com/sketch -->
    <title>d</title>
    <desc>Created with Sketch.</desc>
    <defs></defs>
    <g id="Page-1" stroke="none" stroke-width="1" fill="none" fill-rule="evenodd" sketch:type="MSPage">
        <path d="M32.72,104.728 C39.2,104.728 46.256,101.272 51.296,96.376 L51.872,96.376 L53.6,103 L73.76,103 L73.76,2.776 L48.992,2.776 L48.992,26.104 L50.144,36.472 L49.568,36.472 C45.248,31.864 40.352,29.272 32.72,29.272 C17.6,29.272 2.624,43.384 2.624,67 C2.624,90.328 14.432,104.728 32.72,104.728 L32.72,104.728 Z M39.2,84.568 C32.144,84.568 27.968,79.672 27.968,66.712 C27.968,54.04 33.44,49.432 39.488,49.432 C42.944,49.432 46.112,50.296 48.992,52.888 L48.992,79.384 C46.256,83.416 43.232,84.568 39.2,84.568 L39.2,84.568 Z" id="d" stroke="#4BC076" stroke-width="4" sketch:type="MSShapeGroup"></path>
    </g>
</svg>