<?xml version="1.0" encoding="UTF-8" standalone="no"?>
<svg width="77px" height="80px" viewBox="0 0 77 80" version="1.1" xmlns="http://www.w3.org/2000/svg" xmlns:xlink="http://www.w3.org/1999/xlink" xmlns:sketch="http://www.bohemiancoding.com/sketch/ns">
    <!-- Generator: Sketch 3.3.2 (12043) - http://www.bohemiancoding.com/sketch -->
    <title>e</title>
    <desc>Created with Sketch.</desc>
    <defs></defs>
    <g id="Page-1" stroke="none" stroke-width="1" fill="none" fill-rule="evenodd" sketch:type="MSPage">
        <path d="M43.096,77.728 C52.024,77.728 63.256,74.848 71.896,69.376 L63.832,54.688 C57.496,57.568 52.312,59.008 46.552,59.008 C36.04,59.008 29.704,55.552 27.544,47.488 L73.768,47.488 C74.056,45.76 74.776,41.44 74.776,37.12 C74.776,17.824 63.256,2.272 40.504,2.272 C21.208,2.272 2.776,16.384 2.776,40 C2.776,63.904 20.344,77.728 43.096,77.728 L43.096,77.728 Z M41.368,20.992 C48.136,20.992 51.88,24.592 52.888,31.36 L27.688,31.36 C29.704,24.304 34.312,20.992 41.368,20.992 L41.368,20.992 Z" id="e" stroke="#4BC076" stroke-width="4" sketch:type="MSShapeGroup"></path>
    </g>
</svg>