<?xml version="1.0" encoding="UTF-8" standalone="no"?>
<svg width="82px" height="108px" viewBox="0 0 82 108" version="1.1" xmlns="http://www.w3.org/2000/svg" xmlns:xlink="http://www.w3.org/1999/xlink" xmlns:sketch="http://www.bohemiancoding.com/sketch/ns">
    <!-- Generator: Sketch 3.3.2 (12043) - http://www.bohemiancoding.com/sketch -->
    <title>g</title>
    <desc>Created with Sketch.</desc>
    <defs></defs>
    <g id="Page-1" stroke="none" stroke-width="1" fill="none" fill-rule="evenodd" sketch:type="MSPage">
        <path d="M35.312,105.664 C62.24,105.664 79.376,95.008 79.376,79.456 C79.376,66.208 68.432,60.736 49.424,60.736 L37.184,60.736 C29.12,60.736 25.952,59.584 25.952,56.416 C25.952,54.4 26.528,53.536 28.256,52.24 C31.712,52.96 34.736,53.248 37.328,53.248 C54.464,53.248 67.712,46.336 67.712,29.344 C67.712,26.464 66.704,23.584 65.696,21.856 L78.656,21.856 L78.656,4 L49.568,4 C45.968,2.848 41.648,2.272 37.328,2.272 C20.624,2.272 5.504,10.624 5.504,28.48 C5.504,36.832 9.824,43.456 15.296,46.912 L15.296,47.488 C10.256,50.944 6.656,56.128 6.656,61.024 C6.656,67.072 9.824,70.816 13.856,73.408 L13.856,73.984 C6.656,77.44 2.912,81.904 2.912,87.808 C2.912,100.768 17.456,105.664 35.312,105.664 L35.312,105.664 Z M37.328,38.56 C32.576,38.56 28.688,35.392 28.688,28.48 C28.688,21.856 32.576,18.688 37.328,18.688 C42.08,18.688 46.112,21.856 46.112,28.48 C46.112,35.392 42.08,38.56 37.328,38.56 L37.328,38.56 Z M39.2,90.4 C29.552,90.4 22.928,88.384 22.928,83.776 C22.928,81.76 24.08,80.32 26.528,78.592 C28.976,79.168 31.856,79.456 37.472,79.456 L44.672,79.456 C51.872,79.456 55.904,80.032 55.904,83.776 C55.904,87.808 48.848,90.4 39.2,90.4 L39.2,90.4 Z" id="g" stroke="#EF7EAD" stroke-width="4" sketch:type="MSShapeGroup"></path>
    </g>
</svg>